REM DIRINDEX 1\2,1\3
REM DIRNAME cjc080,folder01,folder02
TITLE ""
FILE "ScrambleS_3Part2_Theme136.mp3" MP3
  TRACK 01 AUDIO
    TITLE "3:cjc080_0704"
    INDEX 01 00:00:00
  TRACK 02 AUDIO
    TITLE "0:"
    INDEX 01 00:02:04
  TRACK 03 AUDIO
    TITLE "2:cjc080_0705"
    INDEX 01 00:03:15
  TRACK 04 AUDIO
    TITLE "0:"
    INDEX 01 00:05:40
  TRACK 05 AUDIO
    TITLE "2:cjc080_0706"
    INDEX 01 00:06:53
  TRACK 06 AUDIO
    TITLE "0:"
    INDEX 01 00:09:22
